<?xml version="1.0" standalone="no"?>
<!DOCTYPE svg PUBLIC "-//W3C//DTD SVG 20010904//EN"
 "http://www.w3.org/TR/2001/REC-SVG-20010904/DTD/svg10.dtd">
<svg version="1.0" xmlns="http://www.w3.org/2000/svg"
 width="700.000000pt" height="700.000000pt" viewBox="0 0 700.000000 700.000000"
 preserveAspectRatio="xMidYMid meet">
<metadata>
Created by potrace 1.11, written by Peter Selinger 2001-2013
</metadata>
<g transform="translate(0.000000,700.000000) scale(0.100000,-0.100000)"
fill="#000000" stroke="none">
<path d="M2470 6550 c-524 -6 -506 -4 -631 -86 -136 -89 -220 -224 -237 -379
-8 -73 -7 -5130 1 -5195 10 -79 27 -127 72 -204 78 -133 202 -218 370 -252 11
-2 669 -4 1462 -5 1595 0 1501 -4 1624 64 106 59 176 132 227 237 55 113 52
-53 52 2757 0 1891 -3 2606 -11 2645 -13 59 -59 165 -86 199 -26 32 -95 101
-119 119 -67 51 -172 89 -259 96 -90 7 -1934 10 -2465 4z"/>
</g>
</svg>
