<?xml version="1.0" encoding="UTF-8" standalone="no"?>
<svg xmlns="http://www.w3.org/2000/svg" viewBox="0 0 512 512">
    <path d="m 360.64508,474.92245 h -211.355 c -14.262,0 -25.822,-11.562 -25.822,-25.822 V 69.744449 c -0.001,-14.261 11.56,-25.822 25.822,-25.822 h 211.355 c 14.261,0 25.822,11.561 25.822,25.822 V 449.10045 c 0,14.26 -11.561,25.822 -25.822,25.822 z" style="fill:#eff2fa"></path>
    <path d="m 197.17208,244.13345 c 0,-17.454 14.067,-31.603 31.42,-31.603 8.601,0 16.388,3.481 22.059,9.114 2.103,2.089 5.53,2.089 7.633,0 5.671,-5.633 13.458,-9.114 22.059,-9.114 17.353,0 31.42,14.149 31.42,31.603 v 0 c 0,32.639 -42.028,62.331 -54.093,70.182 -1.95,1.269 -4.454,1.269 -6.404,0 -12.064,-7.851 -54.094,-37.542 -54.094,-70.182" style="fill:#ff6464"></path>
    <path style="fill:#2d2b29" d="m 254.69608,212.80745 c -7.385,-6.419 -16.972,-10.074 -27.03,-10.074 -22.509,0 -40.822,18.003 -40.822,40.131 0,42.972 61.371,77.382 63.983,78.826 1.204,0.666 2.537,0.998 3.87,0.998 1.333,0 2.666,-0.333 3.87,-0.998 2.612,-1.443 63.982,-35.854 63.982,-78.826 0,-22.128 -18.313,-40.131 -40.822,-40.131 -10.059,0 -19.645,3.655 -27.031,10.074 z m 51.853,30.057 c 0,25.76 -34.435,51.991 -51.857,62.571 -17.428,-10.56 -51.848,-36.748 -51.848,-62.571 0,-13.306 11.135,-24.131 24.822,-24.131 8.187,0 15.846,3.936 20.49,10.528 1.499,2.128 3.938,3.394 6.541,3.394 2.603,0 5.042,-1.266 6.541,-3.394 4.644,-6.593 12.303,-10.528 20.489,-10.528 13.687,0 24.822,10.825 24.822,24.131 z"></path>
    <path style="fill:#2d2b29" d="M 255.79515,426.95045 H 170.71208 V 200.74319 c 0,-4.418 -3.582,-8 -8,-8 -4.418,0 -8,3.582 -8,8 v 234.20826 c 0,4.417 3.582,8 8,8 h 93.08207 c 4.418,0 8,-3.583 8,-8 10e-4,-4.42 -3.581,-8.001 -7.999,-8.001 z"></path>
    <path style="fill:#2d2b29" d="m 252.11081,90.850449 h 86.47327 V 321.9339 c 0,4.418 3.582,8 8,8 4.418,0 8,-3.582 8,-8 V 82.850449 c 0,-4.418 -3.582,-8 -8,-8 h -94.47327 c -4.418,0 -8,3.582 -8,8 0,4.418 3.582,8 8,8 z"></path>
    <path d="m 158.66843,75.816879 h 49.76562 q 3.5,0 4.97656,1.09375 1.53125,1.039063 1.53125,4.375 0,4.046875 -2.67968,8.3125 -11.48438,-4.648437 -29.42188,-4.648437 h -2.625 q -0.32812,5.359375 -0.32812,21.820308 h 27.5625 q 0.92968,2.89844 0.92968,6.01563 0,1.85937 -0.65625,2.51562 -0.65625,0.60157 -2.51562,0.60157 h -25.32031 q 0.0547,21.05468 0.32812,25.42968 h 4.53906 q 18.42969,0 29.20313,-4.32031 2.40625,3.60938 2.40625,7.82031 0,3.00782 -2.24219,4.32032 -2.24219,1.3125 -9.07812,1.3125 l -48.61719,0.0547 q -0.98438,-2.40625 -0.98438,-4.64843 0,-1.47657 0.82032,-2.13282 0.82031,-0.71093 2.40625,-0.71093 h 3.99218 q 0.32813,-7.05469 0.32813,-36.69532 0,-16.023433 -0.32813,-23.023433 h -6.23437 q -0.98438,-2.40625 -0.98438,-4.59375 0,-1.53125 0.82032,-2.1875 0.82031,-0.710938 2.40625,-0.710938 z"></path>
    <path id="path1240" d="m -352.70456,-441.45062 h 49.76563 q 3.5,0 4.97656,1.09375 1.53125,1.03906 1.53125,4.375 0,4.04687 -2.67969,8.3125 -11.48437,-4.64844 -29.42187,-4.64844 h -2.625 q -0.32813,5.35937 -0.32813,21.82031 h 27.5625 q 0.92969,2.89844 0.92969,6.01563 0,1.85937 -0.65625,2.51562 -0.65625,0.60156 -2.51563,0.60156 h -25.32031 q 0.0547,21.05469 0.32813,25.42969 h 4.53906 q 18.42969,0 29.20312,-4.32031 2.40625,3.60937 2.40625,7.82031 0,3.00781 -2.24218,4.32031 -2.24219,1.3125 -9.07813,1.3125 l -48.61719,0.0547 q -0.98437,-2.40625 -0.98437,-4.64844 0,-1.47656 0.82031,-2.13281 0.82031,-0.71094 2.40625,-0.71094 h 3.99219 q 0.32812,-7.05468 0.32812,-36.69531 0,-16.02344 -0.32812,-23.02344 h -6.23438 q -0.98437,-2.40625 -0.98437,-4.59375 0,-1.53125 0.82031,-2.1875 0.82031,-0.71093 2.40625,-0.71093 z" transform="scale(-1)"></path>
    <rect ry="30" rx="30" y="41.540962" x="125.53358" height="430.44318" width="261.48727" style="fill:none;fill-opacity:1;stroke:#2d2b29;stroke-width:17.5003;stroke-miterlimit:4;stroke-dasharray:none;stroke-opacity:1"></rect>
</svg>
